<svg xmlns="http://www.w3.org/2000/svg" width="375" viewBox="0 0 375 375" height="375" version="1.0"><defs><clipPath id="a"><path d="M 182.863281 183 L 191.863281 183 L 191.863281 192 L 182.863281 192 Z M 182.863281 183"/></clipPath></defs><g clip-path="url(#a)"><path fill="#FFF" d="M 185.605469 187.816406 C 185.605469 186.859375 186.382812 186.058594 187.3125 186.058594 C 188.242188 186.058594 189.019531 186.859375 189.019531 187.816406 C 189.019531 188.777344 188.242188 189.574219 187.3125 189.574219 C 186.382812 189.628906 185.605469 188.828125 185.605469 187.816406 M 189.070312 190.265625 L 189.742188 191.757812 C 190.984375 190.960938 191.8125 189.523438 191.8125 187.871094 C 191.8125 185.3125 189.792969 183.234375 187.3125 183.234375 C 184.828125 183.234375 182.863281 185.257812 182.863281 187.816406 C 182.863281 189.46875 183.691406 190.90625 184.933594 191.707031 L 185.605469 190.214844 L 189.070312 190.214844 Z M 189.070312 190.265625"/></g></svg>