<svg xmlns="http://www.w3.org/2000/svg" width="375" viewBox="0 0 375 375" height="375" version="1.0"><defs><clipPath id="a"><path d="M 24.011719 30 L 350 30 L 350 332 L 24.011719 332 Z M 24.011719 30"/></clipPath></defs><g clip-path="url(#a)"><path fill="#FFF" d="M 123.613281 192.191406 C 123.613281 158.363281 151.804688 130.171875 185.628906 130.171875 C 219.457031 130.171875 247.648438 158.363281 247.648438 192.191406 C 247.648438 226.019531 219.457031 254.207031 185.628906 254.207031 C 151.804688 256.085938 123.613281 227.898438 123.613281 192.191406 M 249.527344 278.636719 L 273.957031 331.257812 C 319.0625 303.070312 349.128906 252.328125 349.128906 194.070312 C 349.128906 103.863281 275.835938 30.570312 185.628906 30.570312 C 95.421875 30.570312 24.011719 101.984375 24.011719 192.191406 C 24.011719 250.449219 54.078125 301.191406 99.183594 329.378906 L 123.613281 276.757812 L 249.527344 276.757812 Z M 249.527344 278.636719"/></g></svg>