<svg width="84" height="24" xmlns="http://www.w3.org/2000/svg"><path d="M84 0v24H60V0h24ZM54 0v24H30V0h24ZM24 0v24H0V0h24Zm49.102 5.106c-1.08 0-2.055.16-2.925.481a6.294 6.294 0 0 0-2.239 1.388 6.067 6.067 0 0 0-1.43 2.175c-.33.845-.495 1.792-.495 2.84 0 1.074.16 2.04.477 2.897.317.858.775 1.582 1.372 2.175.597.592 1.327 1.045 2.191 1.36.864.314 1.836.472 2.916.472.812 0 1.588-.09 2.324-.269a7.832 7.832 0 0 0 1.944-.73v-2.573a7.234 7.234 0 0 1-3.868 1.092c-.915 0-1.693-.173-2.334-.518a3.45 3.45 0 0 1-1.468-1.509c-.336-.66-.505-1.458-.505-2.396s.175-1.734.524-2.388a3.55 3.55 0 0 1 1.506-1.499c.654-.345 1.445-.518 2.372-.518.673 0 1.315.09 1.925.268.61.18 1.175.442 1.696.787V6.013a7.892 7.892 0 0 0-1.858-.675 9.418 9.418 0 0 0-2.125-.232Zm-31.286.144H36.75v13.5h5.379c1.064 0 1.976-.157 2.735-.472.758-.315 1.343-.762 1.753-1.34.41-.58.615-1.272.615-2.078 0-.818-.211-1.513-.634-2.086-.422-.573-1.03-.991-1.826-1.256.575-.276 1.01-.65 1.303-1.123.294-.472.44-1.029.44-1.67 0-1.121-.41-1.98-1.23-2.578-.82-.598-1.976-.897-3.469-.897Zm-30 0H6.75v13.5h5.379c1.064 0 1.976-.157 2.735-.472.758-.315 1.343-.762 1.753-1.34.41-.58.615-1.272.615-2.078 0-.818-.211-1.513-.634-2.086-.422-.573-1.03-.991-1.826-1.256.575-.276 1.01-.65 1.303-1.123.294-.472.44-1.029.44-1.67 0-1.121-.41-1.98-1.23-2.578-.82-.598-1.976-.897-3.469-.897Zm30.092 7.666c1.677 0 2.515.617 2.515 1.85 0 .58-.22 1.023-.66 1.331-.441.309-1.072.463-1.891.463h-2.387v-3.644h2.423Zm-30 0c1.677 0 2.515.617 2.515 1.85 0 .58-.22 1.023-.66 1.331-.441.309-1.072.463-1.891.463H9.485v-3.644h2.423ZM41.56 7.44c1.457 0 2.185.535 2.185 1.605 0 .554-.187.985-.56 1.293-.373.309-.915.463-1.625.463h-2.074v-3.36h2.074Zm-30 0c1.457 0 2.185.535 2.185 1.605 0 .554-.187.985-.56 1.293-.373.309-.915.463-1.625.463H9.485v-3.36h2.074Z" fill="#FFF" fill-rule="nonzero"/></svg>